<?xml version="1.0" encoding="UTF-8" standalone="no"?>
<!DOCTYPE svg PUBLIC "-//W3C//DTD SVG 1.1//EN"
 "http://www.w3.org/Graphics/SVG/1.1/DTD/svg11.dtd">
<!-- Generated by graphviz version 2.38.0 (20140413.2041)
 -->
<!-- Title: G Pages: 1 -->
<svg width="205pt" height="305pt"
 viewBox="0.00 0.00 205.00 305.00" xmlns="http://www.w3.org/2000/svg" xmlns:xlink="http://www.w3.org/1999/xlink">
<g id="graph0" class="graph" transform="scale(1 1) rotate(0) translate(4 301)">
<title>G</title>
<polygon fill="white" stroke="none" points="-4,4 -4,-301 201,-301 201,4 -4,4"/>
<!-- system -->
<g id="node1" class="node"><title>system</title>
<ellipse fill="none" stroke="black" cx="67" cy="-18" rx="36.2938" ry="18"/>
<text text-anchor="middle" x="67" y="-14.3" font-family="Times New Roman,serif" font-size="14.00">system</text>
</g>
<!-- SystemPageManager -->
<g id="node2" class="node"><title>SystemPageManager</title>
<polygon fill="none" stroke="black" points="133.5,-123 0.5,-123 0.5,-87 133.5,-87 133.5,-123"/>
<text text-anchor="middle" x="67" y="-101.3" font-family="Times New Roman,serif" font-size="14.00">SystemPageManager</text>
</g>
<!-- SystemPageManager&#45;&gt;system -->
<g id="edge1" class="edge"><title>SystemPageManager&#45;&gt;system</title>
<path fill="none" stroke="black" d="M67,-86.799C67,-75.1626 67,-59.5479 67,-46.2368"/>
<polygon fill="black" stroke="black" points="70.5001,-46.1754 67,-36.1754 63.5001,-46.1755 70.5001,-46.1754"/>
<text text-anchor="middle" x="114" y="-57.8" font-family="Times New Roman,serif" font-size="14.00"> &#160;allocates from &#160;</text>
</g>
<!-- PageAllocator -->
<g id="node3" class="node"><title>PageAllocator</title>
<polygon fill="none" stroke="black" points="114.5,-210 19.5,-210 19.5,-174 114.5,-174 114.5,-210"/>
<text text-anchor="middle" x="67" y="-188.3" font-family="Times New Roman,serif" font-size="14.00">PageAllocator</text>
</g>
<!-- PageAllocator&#45;&gt;SystemPageManager -->
<g id="edge2" class="edge"><title>PageAllocator&#45;&gt;SystemPageManager</title>
<path fill="none" stroke="black" d="M67,-173.799C67,-162.163 67,-146.548 67,-133.237"/>
<polygon fill="black" stroke="black" points="70.5001,-133.175 67,-123.175 63.5001,-133.175 70.5001,-133.175"/>
<text text-anchor="middle" x="114" y="-144.8" font-family="Times New Roman,serif" font-size="14.00"> &#160;allocates from &#160;</text>
</g>
<!-- basic_void_allocator -->
<g id="node4" class="node"><title>basic_void_allocator</title>
<polygon fill="none" stroke="black" points="134,-297 0,-297 0,-261 134,-261 134,-297"/>
<text text-anchor="middle" x="67" y="-275.3" font-family="Times New Roman,serif" font-size="14.00">basic_void_allocator</text>
</g>
<!-- basic_void_allocator&#45;&gt;PageAllocator -->
<g id="edge3" class="edge"><title>basic_void_allocator&#45;&gt;PageAllocator</title>
<path fill="none" stroke="black" d="M27.0278,-260.856C20.2024,-256.092 14.0254,-250.195 10,-243 4.3263,-232.858 9.34421,-223.765 18.3545,-216.204"/>
<polygon fill="black" stroke="black" points="20.6182,-218.888 26.715,-210.223 16.5455,-213.194 20.6182,-218.888"/>
<text text-anchor="middle" x="57" y="-231.8" font-family="Times New Roman,serif" font-size="14.00"> &#160;allocates from &#160;</text>
</g>
<!-- basic_void_allocator&#45;&gt;PageAllocator -->
<g id="edge4" class="edge"><title>basic_void_allocator&#45;&gt;PageAllocator</title>
<path fill="none" stroke="black" d="M91.0693,-260.702C96.3059,-255.644 101.133,-249.66 104,-243 107.764,-234.259 104.551,-225.611 98.7203,-218.028"/>
<polygon fill="black" stroke="black" points="100.919,-215.249 91.5712,-210.263 95.7698,-219.991 100.919,-215.249"/>
<text text-anchor="middle" x="151" y="-231.8" font-family="Times New Roman,serif" font-size="14.00"> &#160;deallocates to &#160;</text>
</g>
</g>
</svg>
